<svg xmlns="http://www.w3.org/2000/svg" width="256" height="100" viewBox="0 0 256 100"><desc>Fab OS window frame for the Aurorae v2 engine. The corner notches inside the window box are transparent on purpose: Aurorae paints this frame offset by the padding into the decoration rect, so anything drawn there shows as a square corner. No mask-* elements: in Aurorae they only set the blur region, never the window shape (brand/gen/aurorae_theme.py). The top-corner shadows are multiplied by a luminance mask (ids taper*/tp*) so they fade out along the notch edges instead of ending in a hard step.</desc><defs><style type="text/css" id="current-color-scheme">.ColorScheme-Text{color:#e6eaf0;}.ColorScheme-Background{color:#0f1420;}.ColorScheme-HeaderBackground{color:#0f1420;}.ColorScheme-Highlight{color:#6e9bff;}.ColorScheme-HighlightedText{color:#ffffff;}.ColorScheme-NegativeText{color:#ff6b6b;}</style><linearGradient id="shL" gradientUnits="userSpaceOnUse" x1="28" y1="0" x2="0" y2="0"><stop offset="0.0000" stop-color="#000" stop-opacity="0.380"/><stop offset="0.3500" stop-color="#000" stop-opacity="0.160"/><stop offset="0.7000" stop-color="#000" stop-opacity="0.046"/><stop offset="1.0000" stop-color="#000" stop-opacity="0.000"/></linearGradient><linearGradient id="shR" gradientUnits="userSpaceOnUse" x1="76" y1="0" x2="104" y2="0"><stop offset="0.0000" stop-color="#000" stop-opacity="0.380"/><stop offset="0.3500" stop-color="#000" stop-opacity="0.160"/><stop offset="0.7000" stop-color="#000" stop-opacity="0.046"/><stop offset="1.0000" stop-color="#000" stop-opacity="0.000"/></linearGradient><linearGradient id="shT" gradientUnits="userSpaceOnUse" x1="0" y1="28" x2="0" y2="0"><stop offset="0.0000" stop-color="#000" stop-opacity="0.380"/><stop offset="0.3500" stop-color="#000" stop-opacity="0.160"/><stop offset="0.7000" stop-color="#000" stop-opacity="0.046"/><stop offset="1.0000" stop-color="#000" stop-opacity="0.000"/></linearGradient><linearGradient id="shB" gradientUnits="userSpaceOnUse" x1="0" y1="72" x2="0" y2="100"><stop offset="0.0000" stop-color="#000" stop-opacity="0.380"/><stop offset="0.3500" stop-color="#000" stop-opacity="0.160"/><stop offset="0.7000" stop-color="#000" stop-opacity="0.046"/><stop offset="1.0000" stop-color="#000" stop-opacity="0.000"/></linearGradient><radialGradient id="shTL" gradientUnits="userSpaceOnUse" cx="48" cy="48" r="48"><stop offset="0.4167" stop-color="#000" stop-opacity="0.380"/><stop offset="0.6208" stop-color="#000" stop-opacity="0.160"/><stop offset="0.8250" stop-color="#000" stop-opacity="0.046"/><stop offset="1.0000" stop-color="#000" stop-opacity="0.000"/></radialGradient><radialGradient id="shTR" gradientUnits="userSpaceOnUse" cx="56" cy="48" r="48"><stop offset="0.4167" stop-color="#000" stop-opacity="0.380"/><stop offset="0.6208" stop-color="#000" stop-opacity="0.160"/><stop offset="0.8250" stop-color="#000" stop-opacity="0.046"/><stop offset="1.0000" stop-color="#000" stop-opacity="0.000"/></radialGradient><radialGradient id="shBL" gradientUnits="userSpaceOnUse" cx="28" cy="72" r="28"><stop offset="0.0000" stop-color="#000" stop-opacity="0.380"/><stop offset="0.3500" stop-color="#000" stop-opacity="0.160"/><stop offset="0.7000" stop-color="#000" stop-opacity="0.046"/><stop offset="1.0000" stop-color="#000" stop-opacity="0.000"/></radialGradient><radialGradient id="shBR" gradientUnits="userSpaceOnUse" cx="76" cy="72" r="28"><stop offset="0.0000" stop-color="#000" stop-opacity="0.380"/><stop offset="0.3500" stop-color="#000" stop-opacity="0.160"/><stop offset="0.7000" stop-color="#000" stop-opacity="0.046"/><stop offset="1.0000" stop-color="#000" stop-opacity="0.000"/></radialGradient><radialGradient id="tpTL" gradientUnits="userSpaceOnUse" cx="28" cy="28" r="20"><stop offset="0" stop-color="#000"/><stop offset="0.9" stop-color="#fff"/><stop offset="1" stop-color="#fff"/></radialGradient><mask id="taperTL" maskUnits="userSpaceOnUse" maskContentUnits="userSpaceOnUse" x="0" y="0" width="48" height="48"><rect x="0" y="0" width="48" height="48" fill="url(#tpTL)"/></mask><radialGradient id="tpTR" gradientUnits="userSpaceOnUse" cx="76" cy="28" r="20"><stop offset="0" stop-color="#000"/><stop offset="0.9" stop-color="#fff"/><stop offset="1" stop-color="#fff"/></radialGradient><mask id="taperTR" maskUnits="userSpaceOnUse" maskContentUnits="userSpaceOnUse" x="56" y="0" width="48" height="48"><rect x="56" y="0" width="48" height="48" fill="url(#tpTR)"/></mask><linearGradient id="shLi" gradientUnits="userSpaceOnUse" x1="28" y1="0" x2="0" y2="0"><stop offset="0.0000" stop-color="#000" stop-opacity="0.200"/><stop offset="0.3500" stop-color="#000" stop-opacity="0.084"/><stop offset="0.7000" stop-color="#000" stop-opacity="0.024"/><stop offset="1.0000" stop-color="#000" stop-opacity="0.000"/></linearGradient><linearGradient id="shRi" gradientUnits="userSpaceOnUse" x1="76" y1="0" x2="104" y2="0"><stop offset="0.0000" stop-color="#000" stop-opacity="0.200"/><stop offset="0.3500" stop-color="#000" stop-opacity="0.084"/><stop offset="0.7000" stop-color="#000" stop-opacity="0.024"/><stop offset="1.0000" stop-color="#000" stop-opacity="0.000"/></linearGradient><linearGradient id="shTi" gradientUnits="userSpaceOnUse" x1="0" y1="28" x2="0" y2="0"><stop offset="0.0000" stop-color="#000" stop-opacity="0.200"/><stop offset="0.3500" stop-color="#000" stop-opacity="0.084"/><stop offset="0.7000" stop-color="#000" stop-opacity="0.024"/><stop offset="1.0000" stop-color="#000" stop-opacity="0.000"/></linearGradient><linearGradient id="shBi" gradientUnits="userSpaceOnUse" x1="0" y1="72" x2="0" y2="100"><stop offset="0.0000" stop-color="#000" stop-opacity="0.200"/><stop offset="0.3500" stop-color="#000" stop-opacity="0.084"/><stop offset="0.7000" stop-color="#000" stop-opacity="0.024"/><stop offset="1.0000" stop-color="#000" stop-opacity="0.000"/></linearGradient><radialGradient id="shTLi" gradientUnits="userSpaceOnUse" cx="48" cy="48" r="48"><stop offset="0.4167" stop-color="#000" stop-opacity="0.200"/><stop offset="0.6208" stop-color="#000" stop-opacity="0.084"/><stop offset="0.8250" stop-color="#000" stop-opacity="0.024"/><stop offset="1.0000" stop-color="#000" stop-opacity="0.000"/></radialGradient><radialGradient id="shTRi" gradientUnits="userSpaceOnUse" cx="56" cy="48" r="48"><stop offset="0.4167" stop-color="#000" stop-opacity="0.200"/><stop offset="0.6208" stop-color="#000" stop-opacity="0.084"/><stop offset="0.8250" stop-color="#000" stop-opacity="0.024"/><stop offset="1.0000" stop-color="#000" stop-opacity="0.000"/></radialGradient><radialGradient id="shBLi" gradientUnits="userSpaceOnUse" cx="28" cy="72" r="28"><stop offset="0.0000" stop-color="#000" stop-opacity="0.200"/><stop offset="0.3500" stop-color="#000" stop-opacity="0.084"/><stop offset="0.7000" stop-color="#000" stop-opacity="0.024"/><stop offset="1.0000" stop-color="#000" stop-opacity="0.000"/></radialGradient><radialGradient id="shBRi" gradientUnits="userSpaceOnUse" cx="76" cy="72" r="28"><stop offset="0.0000" stop-color="#000" stop-opacity="0.200"/><stop offset="0.3500" stop-color="#000" stop-opacity="0.084"/><stop offset="0.7000" stop-color="#000" stop-opacity="0.024"/><stop offset="1.0000" stop-color="#000" stop-opacity="0.000"/></radialGradient><radialGradient id="tpTLi" gradientUnits="userSpaceOnUse" cx="28" cy="28" r="20"><stop offset="0" stop-color="#000"/><stop offset="0.9" stop-color="#fff"/><stop offset="1" stop-color="#fff"/></radialGradient><mask id="taperTLi" maskUnits="userSpaceOnUse" maskContentUnits="userSpaceOnUse" x="0" y="0" width="48" height="48"><rect x="0" y="0" width="48" height="48" fill="url(#tpTLi)"/></mask><radialGradient id="tpTRi" gradientUnits="userSpaceOnUse" cx="76" cy="28" r="20"><stop offset="0" stop-color="#000"/><stop offset="0.9" stop-color="#fff"/><stop offset="1" stop-color="#fff"/></radialGradient><mask id="taperTRi" maskUnits="userSpaceOnUse" maskContentUnits="userSpaceOnUse" x="56" y="0" width="48" height="48"><rect x="56" y="0" width="48" height="48" fill="url(#tpTRi)"/></mask></defs><g transform="translate(0 0)"><g id="decoration-topleft"><path d="M0 0H48V28H28V48H0Z" fill="url(#shTL)" mask="url(#taperTL)"/><rect x="0" y="48" width="28" height="16" fill="url(#shL)"/><path d="M28 64 V48 A20 20 0 0 1 48 28 V64 Z" class="ColorScheme-HeaderBackground" style="fill:currentColor"/></g><g id="decoration-top"><rect x="48" y="0" width="8" height="28" fill="url(#shT)"/><rect x="48" y="28" width="8" height="36" class="ColorScheme-HeaderBackground" style="fill:currentColor"/></g><g id="decoration-topright"><path d="M56 0H104V48H76V28H56Z" fill="url(#shTR)" mask="url(#taperTR)"/><rect x="76" y="48" width="28" height="16" fill="url(#shR)"/><path d="M56 28 A20 20 0 0 1 76 48 V64 H56 Z" class="ColorScheme-HeaderBackground" style="fill:currentColor"/></g><g id="decoration-left"><rect x="0" y="64" width="48" height="8" style="fill:#000;fill-opacity:0"/><rect x="0" y="64" width="28" height="8" fill="url(#shL)"/></g><g id="decoration-center"><rect x="48" y="64" width="8" height="8" style="fill:#000;fill-opacity:0"/></g><g id="decoration-right"><rect x="56" y="64" width="48" height="8" style="fill:#000;fill-opacity:0"/><rect x="76" y="64" width="28" height="8" fill="url(#shR)"/></g><g id="decoration-bottomleft"><rect x="0" y="72" width="28" height="28" fill="url(#shBL)"/><rect x="28" y="72" width="20" height="28" fill="url(#shB)"/></g><g id="decoration-bottom"><rect x="48" y="72" width="8" height="28" fill="url(#shB)"/></g><g id="decoration-bottomright"><rect x="76" y="72" width="28" height="28" fill="url(#shBR)"/><rect x="56" y="72" width="20" height="28" fill="url(#shB)"/></g></g><g transform="translate(112 0)"><g id="decoration-inactive-topleft"><path d="M0 0H48V28H28V48H0Z" fill="url(#shTLi)" mask="url(#taperTLi)"/><rect x="0" y="48" width="28" height="16" fill="url(#shLi)"/><path d="M28 64 V48 A20 20 0 0 1 48 28 V64 Z" class="ColorScheme-HeaderBackground" style="fill:currentColor"/></g><g id="decoration-inactive-top"><rect x="48" y="0" width="8" height="28" fill="url(#shTi)"/><rect x="48" y="28" width="8" height="36" class="ColorScheme-HeaderBackground" style="fill:currentColor"/></g><g id="decoration-inactive-topright"><path d="M56 0H104V48H76V28H56Z" fill="url(#shTRi)" mask="url(#taperTRi)"/><rect x="76" y="48" width="28" height="16" fill="url(#shRi)"/><path d="M56 28 A20 20 0 0 1 76 48 V64 H56 Z" class="ColorScheme-HeaderBackground" style="fill:currentColor"/></g><g id="decoration-inactive-left"><rect x="0" y="64" width="48" height="8" style="fill:#000;fill-opacity:0"/><rect x="0" y="64" width="28" height="8" fill="url(#shLi)"/></g><g id="decoration-inactive-center"><rect x="48" y="64" width="8" height="8" style="fill:#000;fill-opacity:0"/></g><g id="decoration-inactive-right"><rect x="56" y="64" width="48" height="8" style="fill:#000;fill-opacity:0"/><rect x="76" y="64" width="28" height="8" fill="url(#shRi)"/></g><g id="decoration-inactive-bottomleft"><rect x="0" y="72" width="28" height="28" fill="url(#shBLi)"/><rect x="28" y="72" width="20" height="28" fill="url(#shBi)"/></g><g id="decoration-inactive-bottom"><rect x="48" y="72" width="8" height="28" fill="url(#shBi)"/></g><g id="decoration-inactive-bottomright"><rect x="76" y="72" width="28" height="28" fill="url(#shBRi)"/><rect x="56" y="72" width="20" height="28" fill="url(#shBi)"/></g></g><g id="decoration-maximized-center"><rect x="224" y="0" width="8" height="8" class="ColorScheme-HeaderBackground" style="fill:currentColor"/></g><g id="decoration-maximized-inactive-center"><rect x="240" y="0" width="8" height="8" class="ColorScheme-HeaderBackground" style="fill:currentColor"/></g></svg>
